<?xml version="1.0" encoding="UTF-8"?>
<svg id="_レイヤー_1" xmlns="http://www.w3.org/2000/svg" width="200" height="200" version="1.1" viewBox="0 0 200 200">
  <!-- Generator: Adobe Illustrator 29.6.1, SVG Export Plug-In . SVG Version: 2.1.1 Build 9)  -->
  <path d="M199.8,100c0-.4,0-.7,0-1.1,0-.5,0-1,0-1.5-.4-16.6-5-33-13.2-47.2-2.2-3.9-3.6-5.8-4.4-6.6-1.7-1.9-3.6-1.7-4.7-1.6-1.8.1-5.8,1.5-5.8,1.5-1.5.4-13.6,5.2-25.3,16-2.7,2.5-5.6,5.5-8.4,8.8-9.1-10.8-22.5-17.8-37.7-17.8-27.3,0-49.6,22.2-49.6,49.6h0c0,6.8-4.2,13.7-13.5,22.4-2.2,2-4.5,3.7-6.6,5-3.4-8.6-5.1-17.9-5.1-27.3h0s0,0,0,0c0,0,0,0,0,0,0-41.3,33.6-74.9,74.9-74.9,13.3,0,25.8,3.5,36.6,9.6,9.4-7.3,18.4-11.7,23.9-14C143.8,7.9,122.8.2,100,.2c0,0,0,0,0,0h0C45.4.2,1.1,44.1.3,98.5c0,.5,0,1,0,1.5H.2s0,0,0,0c0,.9,0,1.9,0,2.7.5,16.6,5,32.9,13.2,47.1,2.2,3.9,3.6,5.8,4.4,6.6,1.7,1.7,3.6,1.7,4.7,1.6,1.8-.1,5.8-1.5,5.8-1.5,1.5-.4,13.6-5.2,25.3-16,2.7-2.5,5.6-5.5,8.4-8.8,9.1,10.8,22.5,17.8,37.7,17.8,27.3,0,49.6-22.2,49.6-49.6h0c0-6.8,4.2-13.7,13.5-22.4,2.2-2,4.5-3.7,6.6-5,3.4,8.6,5.1,17.9,5.1,27.2,0,0,0,0,0,0,0,4.1-.3,8.1-1,12-5.7,35.6-36.7,62.9-73.9,62.9s-25.8-3.5-36.6-9.6c-9.4,7.3-18.4,11.7-23.9,14,16.8,12.9,37.8,20.5,60.6,20.5h0c.5,0,1,0,1.5,0,49-.7,89.5-36.8,97-83.9.8-5.2,1.3-10.5,1.3-15.9h0s0,0,0,0ZM100,124.7c-13.6,0-24.7-11.1-24.7-24.7s11.1-24.7,24.7-24.7,24.7,11.1,24.7,24.7-11.1,24.7-24.7,24.7Z" fill="#c084fc"/>
</svg>