<?xml version="1.0" encoding="UTF-8"?>
<svg id="_レイヤー_1" xmlns="http://www.w3.org/2000/svg" width="200" height="200" version="1.1" viewBox="0 0 200 200">
  <!-- Generator: Adobe Illustrator 29.6.1, SVG Export Plug-In . SVG Version: 2.1.1 Build 9)  -->
  <path d="M200,100c0-.4,0-.7,0-1.1,0-.5,0-1,0-1.5-.4-16.7-5-33-13.3-47.4-2.2-3.9-3.7-5.8-4.5-6.7-1.7-1.9-3.6-1.7-4.8-1.7-1.8.1-5.8,1.5-5.8,1.5-1.5.4-13.6,5.2-25.4,16.1-2.7,2.5-5.6,5.5-8.5,8.8-9.1-10.8-22.6-17.8-37.8-17.8-27.4,0-49.7,22.3-49.7,49.7h0c0,6.8-4.2,13.7-13.5,22.4-2.2,2-4.5,3.7-6.6,5-3.4-8.7-5.2-17.9-5.2-27.3h0s0,0,0,0c0,0,0,0,0,0,0-41.4,33.7-75,75-75,13.3,0,25.9,3.5,36.7,9.6,9.5-7.3,18.4-11.8,24-14C143.9,7.7,122.8,0,100,0c0,0,0,0,0,0h0C45.3,0,.8,44,0,98.5c0,.5,0,1,0,1.5h0s0,0,0,0c0,1,0,1.9,0,2.7.5,16.6,5,32.9,13.3,47.2,2.2,3.9,3.6,5.8,4.5,6.7,1.7,1.7,3.6,1.7,4.8,1.7,1.8-.1,5.8-1.5,5.8-1.5,1.5-.4,13.6-5.2,25.4-16.1,2.7-2.5,5.6-5.5,8.5-8.8,9.1,10.8,22.6,17.8,37.8,17.8,27.4,0,49.7-22.3,49.7-49.7h0c0-6.8,4.2-13.7,13.5-22.4,2.2-2,4.5-3.7,6.6-5,3.4,8.6,5.1,17.9,5.2,27.3,0,0,0,0,0,0,0,4.1-.3,8.1-1,12-5.8,35.7-36.8,63-74.1,63s-25.9-3.5-36.7-9.6c-9.5,7.3-18.4,11.8-24,14,16.8,12.9,37.9,20.6,60.7,20.6h0c.5,0,1,0,1.5,0,49.1-.7,89.7-36.9,97.2-84.1.8-5.2,1.3-10.5,1.3-15.9h0s0,0,0,0ZM100,124.7c-13.7,0-24.7-11.1-24.7-24.7s11.1-24.7,24.7-24.7,24.7,11.1,24.7,24.7-11.1,24.7-24.7,24.7Z" fill="#60a5fa"/>
</svg>