<?xml version="1.0" encoding="UTF-8"?>
<svg id="_レイヤー_1" data-name="レイヤー_1" xmlns="http://www.w3.org/2000/svg" width="240" height="240" xmlns:xlink="http://www.w3.org/1999/xlink" version="1.1" viewBox="0 0 240 240">
  <!-- Generator: Adobe Illustrator 29.6.1, SVG Export Plug-In . SVG Version: 2.1.1 Build 9)  -->
  <defs>
    <linearGradient id="_名称未設定グラデーション_3" data-name="名称未設定グラデーション 3" x1="79.8" y1="16.4" x2="162.8" y2="230.4" gradientUnits="userSpaceOnUse">
      <stop offset=".2" stop-color="#3b82f6"/>
      <stop offset="1" stop-color="#8b5cf6"/>
    </linearGradient>
  </defs>
  <path d="M239.5,120c0-.4,0-.9,0-1.3,0-.6,0-1.2,0-1.8-.5-19.9-6-39.5-15.9-56.6-2.7-4.6-4.4-6.9-5.3-7.9-2-2.2-4.3-2.1-5.7-2-2.2.1-6.9,1.8-6.9,1.8-1.7.5-16.3,6.2-30.3,19.2-3.2,3-6.7,6.5-10.1,10.5-10.9-12.9-27-21.3-45.2-21.3-32.8,0-59.4,26.6-59.4,59.4h0c0,8.1-5,16.4-16.2,26.8-2.6,2.4-5.4,4.4-7.9,5.9-4.1-10.3-6.2-21.4-6.2-32.7h0s0,0,0,0c0,0,0,0,0,0,0-49.4,40.2-89.7,89.7-89.7,15.9,0,30.9,4.2,43.9,11.5,11.3-8.7,22-14.1,28.7-16.7C172.4,9.7,147.3.5,120,.5c0,0,0,0,0,0h0C54.6.5,1.5,53,.5,118.2c0,.6,0,1.2,0,1.8h0s0,0,0,0c0,1.1,0,2.2.1,3.3.5,19.9,6,39.4,15.8,56.4,2.7,4.6,4.3,7,5.3,7.9,2,2,4.3,2.1,5.7,2,2.2-.1,6.9-1.8,6.9-1.8,1.7-.5,16.3-6.2,30.3-19.2,3.2-3,6.7-6.5,10.1-10.5,10.9,12.9,27,21.3,45.2,21.3,32.8,0,59.4-26.6,59.4-59.4h0c0-8.1,5-16.4,16.2-26.8,2.6-2.4,5.4-4.4,7.9-5.9,4,10.3,6.1,21.4,6.2,32.6,0,0,0,0,0,.1,0,4.9-.4,9.7-1.2,14.3-6.9,42.7-43.9,75.3-88.5,75.3s-30.9-4.2-43.9-11.5c-11.3,8.7-22,14.1-28.7,16.7,20.1,15.4,45.3,24.6,72.5,24.6h0c.6,0,1.2,0,1.8,0,58.7-.9,107.2-44.1,116.2-100.5,1-6.2,1.5-12.5,1.5-19h0s0,0,0,0ZM120,149.6c-16.3,0-29.6-13.2-29.6-29.6s13.2-29.6,29.6-29.6,29.6,13.2,29.6,29.6-13.2,29.6-29.6,29.6Z" fill="url(#_名称未設定グラデーション_3)"/>
</svg>